<svg width="262" height="61" viewBox="0 0 262 61" fill="none" xmlns="http://www.w3.org/2000/svg">
<g clip-path="url(#clip0_291_9896)">
<mask id="mask0_291_9896" style="mask-type:luminance" maskUnits="userSpaceOnUse" x="0" y="0" width="262" height="61">
<path d="M262 0H0V61H262V0Z" fill="white"/>
</mask>
<g mask="url(#mask0_291_9896)">
<path d="M87.8346 25.5722C87.7662 24.7167 87.4453 24.0494 86.8721 23.5703C86.3075 23.0913 85.4477 22.8517 84.2928 22.8517C83.557 22.8517 82.9539 22.9415 82.4834 23.1212C82.0214 23.2923 81.6792 23.5276 81.4567 23.827C81.2343 24.1264 81.1188 24.4686 81.1103 24.8536C81.0932 25.1702 81.1488 25.4567 81.2771 25.7134C81.414 25.9615 81.6279 26.1882 81.9187 26.3935C82.2096 26.5903 82.5817 26.77 83.0352 26.9325C83.4886 27.0951 84.0276 27.2405 84.6521 27.3688L86.808 27.8308C88.2624 28.1388 89.5071 28.5452 90.5423 29.0499C91.5775 29.5547 92.4244 30.1492 93.0832 30.8337C93.7419 31.5095 94.2253 32.2709 94.5333 33.1179C94.8498 33.9648 95.0124 34.8888 95.0209 35.8897C95.0124 37.6179 94.5803 39.0808 93.7248 40.2785C92.8693 41.4762 91.6459 42.3874 90.0547 43.0119C88.472 43.6364 86.5684 43.9487 84.3441 43.9487C82.0599 43.9487 80.0665 43.6107 78.3641 42.9349C76.6702 42.259 75.3527 41.2196 74.4116 39.8165C73.4791 38.4049 73.0086 36.5998 73 34.4011H79.7757C79.8184 35.2053 80.0195 35.8812 80.3788 36.4287C80.7381 36.9762 81.2429 37.3912 81.8931 37.6735C82.5518 37.9558 83.3346 38.097 84.2414 38.097C85.0029 38.097 85.6402 38.0029 86.1535 37.8146C86.6668 37.6264 87.0561 37.3655 87.3213 37.0318C87.5865 36.6982 87.7234 36.3175 87.7319 35.8897C87.7234 35.4876 87.5908 35.1369 87.3341 34.8375C87.086 34.5295 86.6754 34.2557 86.1022 34.0162C85.529 33.7681 84.7548 33.5371 83.7795 33.3232L81.1616 32.7586C78.8346 32.2538 76.9995 31.4111 75.6564 30.2305C74.3218 29.0413 73.6587 27.4202 73.6673 25.3669C73.6587 23.6987 74.1036 22.24 75.0019 20.991C75.9087 19.7334 77.1621 18.7538 78.7619 18.0523C80.3702 17.3508 82.2139 17 84.2928 17C86.4144 17 88.2495 17.355 89.798 18.0651C91.3465 18.7752 92.5399 19.7761 93.3783 21.068C94.2253 22.3512 94.653 23.8527 94.6616 25.5722H87.8346Z" fill="white"/>
<path d="M97.0164 23.1084V17.3593H119.859V23.1084H111.954V43.6407H104.921V23.1084H97.0164Z" fill="white"/>
<path d="M146.769 30.5C146.769 33.4259 146.2 35.894 145.062 37.9045C143.924 39.9064 142.389 41.4249 140.455 42.4601C138.522 43.4867 136.366 44 133.987 44C131.592 44 129.428 43.4824 127.494 42.4472C125.569 41.4035 124.038 39.8807 122.9 37.8788C121.771 35.8683 121.206 33.4087 121.206 30.5C121.206 27.5741 121.771 25.1103 122.9 23.1084C124.038 21.0979 125.569 19.5794 127.494 18.5528C129.428 17.5176 131.592 17 133.987 17C136.366 17 138.522 17.5176 140.455 18.5528C142.389 19.5794 143.924 21.0979 145.062 23.1084C146.2 25.1103 146.769 27.5741 146.769 30.5ZM139.428 30.5C139.428 28.9259 139.219 27.5998 138.8 26.5219C138.389 25.4354 137.777 24.6141 136.965 24.058C136.16 23.4933 135.168 23.211 133.987 23.211C132.807 23.211 131.81 23.4933 130.997 24.058C130.193 24.6141 129.582 25.4354 129.162 26.5219C128.752 27.5998 128.546 28.9259 128.546 30.5C128.546 32.0741 128.752 33.4045 129.162 34.491C129.582 35.5689 130.193 36.3902 130.997 36.9548C131.81 37.5109 132.807 37.789 133.987 37.789C135.168 37.789 136.16 37.5109 136.965 36.9548C137.777 36.3902 138.389 35.5689 138.8 34.491C139.219 33.4045 139.428 32.0741 139.428 30.5Z" fill="white"/>
<path d="M150.07 43.6407V17.3593H161.414C163.365 17.3593 165.071 17.7144 166.534 18.4244C167.997 19.1345 169.135 20.1568 169.948 21.4914C170.761 22.826 171.167 24.4259 171.167 26.2909C171.167 28.173 170.748 29.76 169.909 31.0518C169.079 32.3436 167.912 33.3189 166.406 33.9777C164.909 34.6364 163.159 34.9658 161.157 34.9658H154.382V29.4221H159.72C160.559 29.4221 161.273 29.3194 161.863 29.1141C162.462 28.9002 162.92 28.5623 163.236 28.1003C163.561 27.6383 163.724 27.0352 163.724 26.2909C163.724 25.538 163.561 24.9263 163.236 24.4558C162.92 23.9767 162.462 23.626 161.863 23.4035C161.273 23.1725 160.559 23.057 159.72 23.057H157.205V43.6407H150.07ZM165.469 31.5779L172.04 43.6407H164.289L157.872 31.5779H165.469Z" fill="white"/>
<path d="M174.208 43.6407V17.3593H193.149V23.1084H181.343V27.6255H192.174V33.3745H181.343V37.8916H193.098V43.6407H174.208Z" fill="white"/>
<path d="M211.073 17.3593L216.463 35.8897H216.668L222.058 17.3593H230.117L221.442 43.6407H211.689L203.014 17.3593H211.073Z" fill="white"/>
</g>
<path d="M35.5489 0L31.163 13.42L26.7771 0H22.2181L28.4507 17.719H33.8176L40.1079 0H35.5489Z" fill="#222222"/>
<path d="M55.6894 12.0838L43.1665 18.4162L49.5145 5.80952L46.2828 2.55618L38.2035 19.5781L42.0123 23.4124L58.9211 15.3371L55.6894 12.0838Z" fill="white"/>
<path d="M61.4603 34.9152L48.1295 30.5L61.4603 26.0848V21.4952L43.859 27.7695V33.1724L61.4603 39.5048V34.9152Z" fill="white"/>
<path d="M49.5145 55.1905L43.1665 42.5838L55.6894 48.9743L58.9211 45.7209L42.0123 37.5876L38.2035 41.4219L46.2251 58.4438L49.5145 55.1905Z" fill="white"/>
<path d="M26.7771 61L31.163 47.58L35.5489 61H40.1079L33.8753 43.2809H28.5084L22.2181 61H26.7771Z" fill="white"/>
<path d="M6.63656 48.9162L19.1595 42.5838L12.8115 55.1905L16.0432 58.4438L24.0648 41.4219L20.2559 37.5876L3.40485 45.7209L6.63656 48.9162Z" fill="white"/>
<path d="M0.865662 26.0848L14.1965 30.5L0.865662 34.9152V39.5048L18.467 33.2305V27.8276L0.865662 21.4952V26.0848Z" fill="white"/>
<path d="M12.8692 5.80952L19.1595 18.4162L6.63656 12.0257L3.40485 15.279L20.3137 23.3543L24.1225 19.52L16.1009 2.55618L12.8692 5.80952Z" fill="white"/>
<path d="M35.5489 0L31.163 13.42L26.7771 0H22.2181L28.4507 17.719H33.8176L40.1079 0H35.5489Z" fill="white"/>
</g>
<defs>
<clipPath id="clip0_291_9896">
<rect width="262" height="61" fill="white"/>
</clipPath>
</defs>
</svg>
